<svg xmlns="http://www.w3.org/2000/svg" width="18" height="18" viewBox="0 0 102.81 133.88"><defs><style>.cls-1{fill:#8589b0;}</style></defs><title>trash</title><g id="Layer_2" data-name="Layer 2"><g id="Layer_1-2" data-name="Layer 1"><path class="cls-1" d="M6.92,29.92h89a0,0,0,0,1,0,0v88a16,16,0,0,1-16,16h-57a16,16,0,0,1-16-16v-88A0,0,0,0,1,6.92,29.92Z"/><path class="cls-1" d="M101.87,7.24H77.35L75.09.89A1.38,1.38,0,0,0,73.9,0h-45a1.38,1.38,0,0,0-1.19.89L25.46,7.24H.94A.94.94,0,0,0,0,8.18V21.24a.94.94,0,0,0,.94.94H101.87a.94.94,0,0,0,.94-.94V8.18A.94.94,0,0,0,101.87,7.24Z"/></g></g></svg>