<svg xmlns="http://www.w3.org/2000/svg" class="sm:w-full sm:h-auto rounded-r-3xl h-full" viewBox="0 0 162 162"><defs><style>.cls-1{fill:#7c5dfa;}.cls-2{fill:#7d5cfc;}.cls-3{fill:#9278ff;}.cls-4{fill:#fff;}</style></defs><title>app-logo</title><g id="Layer_2" data-name="Layer 2"><g id="Layer_1-2" data-name="Layer 1"><rect class="cls-1" width="162" height="162"/><path class="cls-3" d="M45.5,81H162a0,0,0,0,1,0,0v81a0,0,0,0,1,0,0H0a0,0,0,0,1,0,0V126.5A45.5,45.5,0,0,1,45.5,81Z"/><path class="cls-4" d="M82,78,94.66,54.6A1.54,1.54,0,0,1,96.81,54a30.25,30.25,0,1,1-31.17-.27,1.54,1.54,0,0,1,2.13.64L80.07,78A1.07,1.07,0,0,0,82,78Z"/></g></g></svg>